<?xml version="1.0" standalone="no"?>
<!DOCTYPE svg PUBLIC "-//W3C//DTD SVG 20010904//EN"
 "http://www.w3.org/TR/2001/REC-SVG-20010904/DTD/svg10.dtd">
<svg version="1.0" xmlns="http://www.w3.org/2000/svg"
 width="512.000000pt" height="512.000000pt" viewBox="0 0 512.000000 512.000000"
 preserveAspectRatio="xMidYMid meet">
<metadata>
Created by potrace 1.14, written by Peter Selinger 2001-2017
</metadata>
<g transform="translate(0.000000,512.000000) scale(0.100000,-0.100000)"
fill="#000000" stroke="none">
<path d="M2315 5109 c-719 -74 -1370 -440 -1799 -1009 -505 -670 -649 -1543
-386 -2340 127 -386 323 -705 613 -999 408 -412 904 -658 1502 -743 118 -17
512 -17 630 0 598 85 1095 331 1502 743 405 410 641 893 725 1484 17 118 17
512 0 630 -97 678 -410 1243 -927 1671 -344 284 -783 476 -1255 549 -126 19
-477 28 -605 14z m503 -890 c651 -71 1016 -419 1097 -1046 l7 -53 -379 0 -378
0 -19 87 c-25 110 -83 230 -139 286 -109 110 -332 162 -518 123 -251 -54 -411
-269 -475 -641 -21 -125 -30 -523 -15 -694 40 -454 186 -686 482 -767 87 -24
325 -24 423 0 81 19 185 68 215 100 21 22 21 31 19 267 l-3 244 -272 3 -273 2
0 270 0 270 665 0 665 0 0 -668 0 -669 -58 -56 c-259 -246 -783 -402 -1296
-384 -315 11 -544 77 -762 222 -356 237 -560 629 -604 1160 -13 155 -13 418 0
570 59 695 414 1179 981 1335 173 47 424 63 637 39z"/>
</g>
</svg>
